<?xml version="1.0" encoding="utf-8" ?><svg xmlns="http://www.w3.org/2000/svg" xmlns:xlink="http://www.w3.org/1999/xlink" width="232" height="360" viewBox="0 0 232 360"><clipPath id="cl_3"><rect y="-6.1035156e-05" width="232" height="360"/></clipPath><g clip-path="url(#cl_3)"><defs><linearGradient id="gradient_0" gradientUnits="userSpaceOnUse" x1="769.47339" y1="470.55362" x2="774.88184" y2="299.32724"><stop offset="0" stop-color="#8D1900"/><stop offset="1" stop-color="#E45500"/></linearGradient></defs><path fill="url(#gradient_0)" transform="translate(-650 -183)" d="M762.339 199.908C763.22 202.853 764.034 205.817 764.778 208.799C772.884 233.098 780.624 253.006 793.461 275.067C826.275 331.457 889.69 390.566 855.782 461.196C840.93 492.13 809.923 512.383 777.118 519.507L772.105 520.617C767.252 521.061 762.366 521.019 757.521 520.49C730.2 517.446 698.514 497.438 681.634 475.952C672.527 464.574 666.413 451.096 663.848 436.749C648.505 354.262 751.791 287.868 762.339 199.908ZM777.503 517.563C792.524 501.898 806.763 492.621 821.201 473.549C842.841 444.966 846.447 425.653 842.316 390.71C839.685 425.712 818.011 454.467 783.217 462.571C777.047 466.519 770.421 469.876 763.786 472.954C755.416 466.038 746.551 458.25 740.221 449.337C711.988 409.583 742.942 375.436 759.483 339.644C766.702 324.022 770.533 312.337 773.12 295.606C774.863 280.456 773.337 262.315 770.689 247.339C768.137 265.728 771.624 275.741 764.691 295.11C747.621 342.798 692.095 397.482 724.371 450.687C729.41 456.255 733.341 461.636 738.729 467.185C756.443 485.425 770.442 491.376 777.503 517.563ZM778.733 300.563C779.416 321.886 789.026 344.79 798.914 363.106C809.169 382.103 817.482 399.879 812.519 421.91C812.048 424.003 810.991 428.149 811.01 430.039C813.437 424.771 815.276 420.624 817.267 415.272C829.205 383.176 811.355 357.739 795.43 331.501C788.98 320.874 784.13 311.932 778.733 300.563Z"/><defs><linearGradient id="gradient_1" gradientUnits="userSpaceOnUse" x1="782.41663" y1="513.99585" x2="681.54572" y2="230.43301"><stop offset="0" stop-color="#8A1700"/><stop offset="1" stop-color="#BC3B00"/></linearGradient></defs><path fill="url(#gradient_1)" transform="translate(-650 -183)" d="M762.339 199.908C763.22 202.853 764.034 205.817 764.778 208.799C764.416 212.224 769.89 240.104 770.689 247.339C768.137 265.728 771.624 275.741 764.691 295.11C747.621 342.798 692.095 397.482 724.371 450.687C729.41 456.255 733.341 461.636 738.729 467.185C756.443 485.425 770.442 491.376 777.503 517.563L777.118 519.507L772.105 520.617C767.252 521.061 762.366 521.019 757.521 520.49C730.2 517.446 698.514 497.438 681.634 475.952C672.527 464.574 666.413 451.096 663.848 436.749C648.505 354.262 751.791 287.868 762.339 199.908Z"/><defs><linearGradient id="gradient_2" gradientUnits="userSpaceOnUse" x1="762.31744" y1="432.83435" x2="684.24268" y2="445.08691"><stop offset="0" stop-color="#ED6800"/><stop offset="1" stop-color="#FE8F00"/></linearGradient></defs><path fill="url(#gradient_2)" transform="translate(-650 -183)" d="M694.501 352.708C690.967 372.489 686.607 373.381 691.783 398.686C695.017 414.499 711.26 442.734 724.371 450.687C729.41 456.255 733.341 461.636 738.729 467.185C756.443 485.425 770.442 491.376 777.503 517.563L777.118 519.507L772.105 520.617C766.381 514.522 758.24 505.623 751.673 500.936C722.664 480.228 690.824 463.426 680.855 425.952C673.024 396.517 680.442 377.838 694.501 352.708Z"/><path fill="#EB6600" transform="translate(-650 -183)" d="M770.689 247.339C769.89 240.104 764.416 212.224 764.778 208.799C772.884 233.098 780.624 253.006 793.461 275.067C826.275 331.457 889.69 390.566 855.782 461.196C840.93 492.13 809.923 512.383 777.118 519.507L777.503 517.563C792.524 501.898 806.763 492.621 821.201 473.549C842.841 444.966 846.447 425.653 842.316 390.71C839.685 425.712 818.011 454.467 783.217 462.571C792.076 453.587 805.916 441.903 811.01 430.039C813.437 424.771 815.276 420.624 817.267 415.272C829.205 383.176 811.355 357.739 795.43 331.501C788.98 320.874 784.13 311.932 778.733 300.563C776.478 297.206 776.402 297.01 773.12 295.606C774.863 280.456 773.337 262.315 770.689 247.339Z"/></g></svg>